<svg xmlns="http://www.w3.org/2000/svg" xmlns:xlink="http://www.w3.org/1999/xlink" width="100" zoomAndPan="magnify" viewBox="0 0 75 30.000001" height="40" preserveAspectRatio="xMidYMid meet" version="1.0"><defs><g/><clipPath id="id1"><path d="M 28.429688 4.113281 L 48.753906 4.113281 L 48.753906 23.710938 L 28.429688 23.710938 Z M 28.429688 4.113281 " clip-rule="nonzero"/></clipPath></defs><path fill="#ff6b6b" d="M 43.488281 9.160156 C 43.488281 10.4375 42.425781 11.476562 41.117188 11.476562 C 39.808594 11.476562 38.746094 10.4375 38.746094 9.160156 C 38.746094 7.878906 39.808594 6.84375 41.117188 6.84375 C 42.425781 6.84375 43.488281 7.878906 43.488281 9.160156 " fill-opacity="1" fill-rule="nonzero"/><g clip-path="url(#id1)"><path fill="#ff6b6b" d="M 48.75 4.113281 C 48.75 4.113281 45.648438 11.59375 41.136719 12.132812 C 36.480469 12.691406 31.050781 5.953125 31.050781 5.953125 C 32.632812 11.296875 39.796875 15.484375 31.660156 20.554688 C 31.660156 20.554688 33.597656 20.414062 36.179688 19.515625 C 32.269531 22.34375 28.4375 23.710938 28.4375 23.710938 C 43.652344 23.710938 48.230469 7.769531 48.75 4.113281 " fill-opacity="1" fill-rule="nonzero"/></g><g fill="#274082" fill-opacity="1"><g transform="translate(1.209676, 17.333494)"><g><path d="M 1.765625 -6.0625 L 3.75 -2.828125 L 5.765625 -6.0625 L 6.625 -6.0625 L 6.625 0 L 5.703125 0 L 5.703125 -2.484375 C 5.703125 -2.847656 5.707031 -3.191406 5.71875 -3.515625 C 5.726562 -3.847656 5.753906 -4.175781 5.796875 -4.5 L 4.015625 -1.734375 L 3.4375 -1.734375 L 1.703125 -4.484375 C 1.734375 -4.160156 1.753906 -3.835938 1.765625 -3.515625 C 1.773438 -3.191406 1.78125 -2.847656 1.78125 -2.484375 L 1.78125 0 L 0.84375 0 L 0.84375 -6.0625 Z M 1.765625 -6.0625 "/></g></g></g><g fill="#274082" fill-opacity="1"><g transform="translate(8.094735, 17.333494)"><g><path d="M 4.53125 -0.59375 L 4.515625 -0.59375 C 4.328125 -0.414062 4.070312 -0.253906 3.75 -0.109375 C 3.425781 0.0234375 3.09375 0.09375 2.75 0.09375 C 2.269531 0.09375 1.847656 -0.00390625 1.484375 -0.203125 C 1.128906 -0.410156 0.847656 -0.6875 0.640625 -1.03125 C 0.441406 -1.382812 0.34375 -1.78125 0.34375 -2.21875 C 0.34375 -2.726562 0.445312 -3.160156 0.65625 -3.515625 C 0.875 -3.878906 1.160156 -4.15625 1.515625 -4.34375 C 1.867188 -4.539062 2.253906 -4.640625 2.671875 -4.640625 C 3.046875 -4.640625 3.390625 -4.546875 3.703125 -4.359375 C 4.015625 -4.171875 4.257812 -3.910156 4.4375 -3.578125 C 4.625 -3.253906 4.71875 -2.875 4.71875 -2.4375 L 4.71875 -2.0625 L 1.234375 -2.0625 C 1.285156 -1.65625 1.453125 -1.332031 1.734375 -1.09375 C 2.023438 -0.851562 2.390625 -0.734375 2.828125 -0.734375 C 3.148438 -0.734375 3.40625 -0.789062 3.59375 -0.90625 C 3.789062 -1.019531 3.953125 -1.132812 4.078125 -1.25 Z M 2.671875 -3.828125 C 2.328125 -3.828125 2.023438 -3.742188 1.765625 -3.578125 C 1.515625 -3.421875 1.347656 -3.148438 1.265625 -2.765625 L 3.8125 -2.765625 L 3.8125 -2.828125 C 3.800781 -3.023438 3.738281 -3.195312 3.625 -3.34375 C 3.507812 -3.5 3.367188 -3.617188 3.203125 -3.703125 C 3.035156 -3.785156 2.859375 -3.828125 2.671875 -3.828125 Z M 2.671875 -3.828125 "/></g></g></g><g fill="#274082" fill-opacity="1"><g transform="translate(12.575191, 17.333494)"><g><path d="M 3 -4.640625 C 3.414062 -4.640625 3.734375 -4.554688 3.953125 -4.390625 C 4.179688 -4.222656 4.335938 -4 4.421875 -3.71875 C 4.515625 -3.4375 4.5625 -3.117188 4.5625 -2.765625 L 4.5625 0 L 3.671875 0 L 3.671875 -2.703125 C 3.671875 -2.921875 3.640625 -3.117188 3.578125 -3.296875 C 3.523438 -3.472656 3.425781 -3.609375 3.28125 -3.703125 C 3.144531 -3.804688 2.953125 -3.847656 2.703125 -3.828125 C 2.472656 -3.828125 2.269531 -3.773438 2.09375 -3.671875 C 1.914062 -3.578125 1.773438 -3.445312 1.671875 -3.28125 C 1.566406 -3.125 1.515625 -2.945312 1.515625 -2.75 L 1.515625 0 L 0.625 0 L 0.625 -4.546875 L 1.515625 -4.546875 L 1.515625 -3.828125 C 1.648438 -4.035156 1.847656 -4.222656 2.109375 -4.390625 C 2.378906 -4.554688 2.675781 -4.640625 3 -4.640625 Z M 3 -4.640625 "/></g></g></g><g fill="#274082" fill-opacity="1"><g transform="translate(17.133494, 17.333494)"><g><path d="M 2.078125 0 L 1.1875 0 L 1.1875 -3.671875 L 0.25 -3.671875 L 0.25 -4.546875 L 1.1875 -4.546875 L 1.1875 -5.703125 L 2.078125 -5.703125 L 2.078125 -4.546875 L 3.140625 -4.546875 L 3.140625 -3.671875 L 2.078125 -3.671875 Z M 2.078125 0 "/></g></g></g><g fill="#274082" fill-opacity="1"><g transform="translate(19.866721, 17.333494)"><g><path d="M 0.453125 -2.03125 L 0.453125 -2.921875 L 2.953125 -2.921875 L 2.953125 -2.03125 Z M 0.453125 -2.03125 "/></g></g></g><g fill="#274082" fill-opacity="1"><g transform="translate(22.686444, 17.333494)"><g><path d="M 5.078125 -6.0625 L 6.015625 -6.0625 L 6.015625 0 L 5.15625 0 L 1.640625 -4.625 C 1.671875 -4.269531 1.703125 -3.914062 1.734375 -3.5625 C 1.765625 -3.21875 1.78125 -2.867188 1.78125 -2.515625 L 1.78125 0 L 0.84375 0 L 0.84375 -6.0625 L 1.6875 -6.0625 L 5.21875 -1.34375 C 5.164062 -1.757812 5.128906 -2.210938 5.109375 -2.703125 C 5.085938 -3.191406 5.078125 -3.644531 5.078125 -4.0625 Z M 5.078125 -6.0625 "/></g></g></g><g fill="#274082" fill-opacity="1"><g transform="translate(28.957377, 17.333494)"><g><path d="M 4.625 -0.90625 L 4.625 0 L 0.84375 0 L 0.84375 -6.0625 L 1.78125 -6.0625 L 1.78125 -0.90625 Z M 4.625 -0.90625 "/></g></g></g><g fill="#274082" fill-opacity="1"><g transform="translate(45.750762, 15.945986)"><g><path d="M 0.890625 0 L 0.890625 -2.296875 L 0.140625 -2.296875 L 0.140625 -2.703125 L 2.09375 -2.703125 L 2.09375 -2.296875 L 1.3125 -2.296875 L 1.3125 0 Z M 0.890625 0 "/></g></g></g><g fill="#274082" fill-opacity="1"><g transform="translate(47.709195, 15.945986)"><g><path d="M 1.34375 -2.0625 C 1.519531 -2.0625 1.660156 -2.023438 1.765625 -1.953125 C 1.867188 -1.878906 1.9375 -1.78125 1.96875 -1.65625 C 2.007812 -1.53125 2.03125 -1.390625 2.03125 -1.234375 L 2.03125 0 L 1.640625 0 L 1.640625 -1.203125 C 1.640625 -1.304688 1.625 -1.394531 1.59375 -1.46875 C 1.570312 -1.550781 1.53125 -1.613281 1.46875 -1.65625 C 1.40625 -1.695312 1.316406 -1.710938 1.203125 -1.703125 C 1.097656 -1.703125 1.003906 -1.679688 0.921875 -1.640625 C 0.847656 -1.597656 0.785156 -1.539062 0.734375 -1.46875 C 0.691406 -1.394531 0.671875 -1.316406 0.671875 -1.234375 L 0.671875 0 L 0.28125 0 L 0.28125 -2.859375 L 0.671875 -2.859375 L 0.671875 -1.703125 C 0.734375 -1.796875 0.820312 -1.878906 0.9375 -1.953125 C 1.0625 -2.023438 1.195312 -2.0625 1.34375 -2.0625 Z M 1.34375 -2.0625 "/></g></g></g><g fill="#274082" fill-opacity="1"><g transform="translate(49.740888, 15.945986)"><g><path d="M 2.015625 -0.265625 C 1.929688 -0.179688 1.816406 -0.109375 1.671875 -0.046875 C 1.523438 0.00390625 1.375 0.03125 1.21875 0.03125 C 1.007812 0.03125 0.820312 -0.0078125 0.65625 -0.09375 C 0.5 -0.1875 0.375 -0.304688 0.28125 -0.453125 C 0.195312 -0.609375 0.15625 -0.785156 0.15625 -0.984375 C 0.15625 -1.210938 0.203125 -1.40625 0.296875 -1.5625 C 0.390625 -1.726562 0.515625 -1.851562 0.671875 -1.9375 C 0.828125 -2.03125 1 -2.078125 1.1875 -2.078125 C 1.351562 -2.078125 1.503906 -2.035156 1.640625 -1.953125 C 1.785156 -1.867188 1.898438 -1.75 1.984375 -1.59375 C 2.066406 -1.445312 2.109375 -1.28125 2.109375 -1.09375 L 2.109375 -0.921875 L 0.546875 -0.921875 C 0.578125 -0.734375 0.65625 -0.585938 0.78125 -0.484375 C 0.90625 -0.378906 1.066406 -0.328125 1.265625 -0.328125 C 1.398438 -0.328125 1.507812 -0.351562 1.59375 -0.40625 C 1.6875 -0.457031 1.765625 -0.507812 1.828125 -0.5625 Z M 1.1875 -1.703125 C 1.039062 -1.703125 0.910156 -1.664062 0.796875 -1.59375 C 0.679688 -1.53125 0.601562 -1.410156 0.5625 -1.234375 L 1.703125 -1.234375 L 1.703125 -1.265625 C 1.691406 -1.347656 1.660156 -1.421875 1.609375 -1.484375 C 1.566406 -1.554688 1.503906 -1.609375 1.421875 -1.640625 C 1.347656 -1.679688 1.269531 -1.703125 1.1875 -1.703125 Z M 1.1875 -1.703125 "/></g></g></g><g fill="#274082" fill-opacity="1"><g transform="translate(51.737878, 15.945986)"><g/></g></g><g fill="#274082" fill-opacity="1"><g transform="translate(52.554997, 15.945986)"><g><path d="M 2.375 -1.84375 C 2.375 -1.675781 2.328125 -1.523438 2.234375 -1.390625 C 2.140625 -1.253906 2.015625 -1.148438 1.859375 -1.078125 L 2.484375 0 L 1.984375 0 L 1.40625 -1.015625 L 0.796875 -1.015625 L 0.796875 0 L 0.375 0 L 0.375 -2.703125 L 1.53125 -2.703125 C 1.664062 -2.703125 1.796875 -2.664062 1.921875 -2.59375 C 2.054688 -2.53125 2.164062 -2.429688 2.25 -2.296875 C 2.332031 -2.171875 2.375 -2.019531 2.375 -1.84375 Z M 1.453125 -2.296875 L 0.796875 -2.296875 L 0.796875 -1.421875 L 1.5625 -1.421875 C 1.6875 -1.421875 1.78125 -1.460938 1.84375 -1.546875 C 1.914062 -1.628906 1.953125 -1.726562 1.953125 -1.84375 C 1.953125 -1.988281 1.898438 -2.097656 1.796875 -2.171875 C 1.703125 -2.253906 1.585938 -2.296875 1.453125 -2.296875 Z M 1.453125 -2.296875 "/></g></g></g><g fill="#274082" fill-opacity="1"><g transform="translate(54.97227, 15.945986)"><g><path d="M 0.40625 -2.40625 C 0.320312 -2.40625 0.253906 -2.425781 0.203125 -2.46875 C 0.160156 -2.519531 0.140625 -2.582031 0.140625 -2.65625 C 0.140625 -2.726562 0.160156 -2.785156 0.203125 -2.828125 C 0.253906 -2.878906 0.320312 -2.90625 0.40625 -2.90625 C 0.5 -2.90625 0.566406 -2.882812 0.609375 -2.84375 C 0.648438 -2.800781 0.671875 -2.738281 0.671875 -2.65625 C 0.671875 -2.59375 0.648438 -2.535156 0.609375 -2.484375 C 0.566406 -2.429688 0.5 -2.40625 0.40625 -2.40625 Z M 0.671875 0 L 0.28125 0 L 0.28125 -2.03125 L 0.671875 -2.03125 Z M 0.671875 0 "/></g></g></g><g fill="#274082" fill-opacity="1"><g transform="translate(55.781678, 15.945986)"><g><path d="M 0.5625 0.328125 C 0.632812 0.390625 0.726562 0.4375 0.84375 0.46875 C 0.957031 0.507812 1.070312 0.53125 1.1875 0.53125 C 1.394531 0.53125 1.550781 0.476562 1.65625 0.375 C 1.769531 0.28125 1.828125 0.128906 1.828125 -0.078125 L 1.828125 -0.328125 C 1.796875 -0.265625 1.742188 -0.203125 1.671875 -0.140625 C 1.609375 -0.0859375 1.53125 -0.046875 1.4375 -0.015625 C 1.34375 0.015625 1.25 0.03125 1.15625 0.03125 C 0.96875 0.03125 0.796875 -0.0078125 0.640625 -0.09375 C 0.492188 -0.1875 0.375 -0.3125 0.28125 -0.46875 C 0.195312 -0.625 0.15625 -0.804688 0.15625 -1.015625 C 0.15625 -1.222656 0.195312 -1.40625 0.28125 -1.5625 C 0.375 -1.71875 0.492188 -1.835938 0.640625 -1.921875 C 0.796875 -2.015625 0.960938 -2.0625 1.140625 -2.0625 C 1.296875 -2.0625 1.429688 -2.023438 1.546875 -1.953125 C 1.671875 -1.890625 1.765625 -1.820312 1.828125 -1.75 L 1.828125 -2.03125 L 2.234375 -2.03125 L 2.234375 -0.125 C 2.234375 0.113281 2.179688 0.304688 2.078125 0.453125 C 1.984375 0.609375 1.859375 0.71875 1.703125 0.78125 C 1.546875 0.851562 1.375 0.890625 1.1875 0.890625 C 1.039062 0.890625 0.894531 0.863281 0.75 0.8125 C 0.613281 0.769531 0.5 0.710938 0.40625 0.640625 Z M 1.203125 -1.703125 C 1.078125 -1.703125 0.960938 -1.671875 0.859375 -1.609375 C 0.765625 -1.554688 0.691406 -1.476562 0.640625 -1.375 C 0.585938 -1.269531 0.5625 -1.148438 0.5625 -1.015625 C 0.5625 -0.878906 0.585938 -0.757812 0.640625 -0.65625 C 0.691406 -0.5625 0.765625 -0.484375 0.859375 -0.421875 C 0.960938 -0.359375 1.078125 -0.328125 1.203125 -0.328125 C 1.328125 -0.328125 1.4375 -0.351562 1.53125 -0.40625 C 1.632812 -0.46875 1.710938 -0.550781 1.765625 -0.65625 C 1.816406 -0.757812 1.84375 -0.878906 1.84375 -1.015625 C 1.84375 -1.148438 1.816406 -1.269531 1.765625 -1.375 C 1.710938 -1.476562 1.632812 -1.554688 1.53125 -1.609375 C 1.4375 -1.671875 1.328125 -1.703125 1.203125 -1.703125 Z M 1.203125 -1.703125 "/></g></g></g><g fill="#274082" fill-opacity="1"><g transform="translate(58.021585, 15.945986)"><g><path d="M 1.34375 -2.0625 C 1.519531 -2.0625 1.660156 -2.023438 1.765625 -1.953125 C 1.867188 -1.878906 1.9375 -1.78125 1.96875 -1.65625 C 2.007812 -1.53125 2.03125 -1.390625 2.03125 -1.234375 L 2.03125 0 L 1.640625 0 L 1.640625 -1.203125 C 1.640625 -1.304688 1.625 -1.394531 1.59375 -1.46875 C 1.570312 -1.550781 1.53125 -1.613281 1.46875 -1.65625 C 1.40625 -1.695312 1.316406 -1.710938 1.203125 -1.703125 C 1.097656 -1.703125 1.003906 -1.679688 0.921875 -1.640625 C 0.847656 -1.597656 0.785156 -1.539062 0.734375 -1.46875 C 0.691406 -1.394531 0.671875 -1.316406 0.671875 -1.234375 L 0.671875 0 L 0.28125 0 L 0.28125 -2.859375 L 0.671875 -2.859375 L 0.671875 -1.703125 C 0.734375 -1.796875 0.820312 -1.878906 0.9375 -1.953125 C 1.0625 -2.023438 1.195312 -2.0625 1.34375 -2.0625 Z M 1.34375 -2.0625 "/></g></g></g><g fill="#274082" fill-opacity="1"><g transform="translate(60.053277, 15.945986)"><g><path d="M 0.921875 0 L 0.53125 0 L 0.53125 -1.640625 L 0.109375 -1.640625 L 0.109375 -2.03125 L 0.53125 -2.03125 L 0.53125 -2.546875 L 0.921875 -2.546875 L 0.921875 -2.03125 L 1.390625 -2.03125 L 1.390625 -1.640625 L 0.921875 -1.640625 Z M 0.921875 0 "/></g></g></g><g fill="#274082" fill-opacity="1"><g transform="translate(61.271397, 15.945986)"><g/></g></g><g fill="#274082" fill-opacity="1"><g transform="translate(62.088516, 15.945986)"><g><path d="M 0.53125 -1.015625 C 0.53125 -0.878906 0.5625 -0.757812 0.625 -0.65625 C 0.6875 -0.550781 0.765625 -0.46875 0.859375 -0.40625 C 0.960938 -0.351562 1.070312 -0.328125 1.1875 -0.328125 C 1.3125 -0.328125 1.421875 -0.359375 1.515625 -0.421875 C 1.609375 -0.484375 1.6875 -0.550781 1.75 -0.625 L 1.96875 -0.359375 C 1.914062 -0.285156 1.847656 -0.21875 1.765625 -0.15625 C 1.679688 -0.101562 1.582031 -0.0546875 1.46875 -0.015625 C 1.363281 0.015625 1.253906 0.03125 1.140625 0.03125 C 0.953125 0.03125 0.78125 -0.0078125 0.625 -0.09375 C 0.476562 -0.1875 0.363281 -0.3125 0.28125 -0.46875 C 0.195312 -0.632812 0.15625 -0.816406 0.15625 -1.015625 C 0.15625 -1.210938 0.195312 -1.390625 0.28125 -1.546875 C 0.363281 -1.710938 0.476562 -1.835938 0.625 -1.921875 C 0.78125 -2.015625 0.953125 -2.0625 1.140625 -2.0625 C 1.328125 -2.0625 1.492188 -2.023438 1.640625 -1.953125 C 1.785156 -1.878906 1.894531 -1.78125 1.96875 -1.65625 L 1.75 -1.390625 C 1.6875 -1.472656 1.597656 -1.546875 1.484375 -1.609375 C 1.378906 -1.671875 1.273438 -1.703125 1.171875 -1.703125 C 1.054688 -1.703125 0.945312 -1.671875 0.84375 -1.609375 C 0.75 -1.554688 0.671875 -1.476562 0.609375 -1.375 C 0.554688 -1.269531 0.53125 -1.148438 0.53125 -1.015625 Z M 0.53125 -1.015625 "/></g></g></g><g fill="#274082" fill-opacity="1"><g transform="translate(63.888861, 15.945986)"><g><path d="M 1.34375 -2.0625 C 1.519531 -2.0625 1.660156 -2.023438 1.765625 -1.953125 C 1.867188 -1.878906 1.9375 -1.78125 1.96875 -1.65625 C 2.007812 -1.53125 2.03125 -1.390625 2.03125 -1.234375 L 2.03125 0 L 1.640625 0 L 1.640625 -1.203125 C 1.640625 -1.304688 1.625 -1.394531 1.59375 -1.46875 C 1.570312 -1.550781 1.53125 -1.613281 1.46875 -1.65625 C 1.40625 -1.695312 1.316406 -1.710938 1.203125 -1.703125 C 1.097656 -1.703125 1.003906 -1.679688 0.921875 -1.640625 C 0.847656 -1.597656 0.785156 -1.539062 0.734375 -1.46875 C 0.691406 -1.394531 0.671875 -1.316406 0.671875 -1.234375 L 0.671875 0 L 0.28125 0 L 0.28125 -2.859375 L 0.671875 -2.859375 L 0.671875 -1.703125 C 0.734375 -1.796875 0.820312 -1.878906 0.9375 -1.953125 C 1.0625 -2.023438 1.195312 -2.0625 1.34375 -2.0625 Z M 1.34375 -2.0625 "/></g></g></g><g fill="#274082" fill-opacity="1"><g transform="translate(65.920553, 15.945986)"><g><path d="M 2.21875 -1.015625 C 2.21875 -0.804688 2.171875 -0.625 2.078125 -0.46875 C 1.984375 -0.3125 1.859375 -0.1875 1.703125 -0.09375 C 1.554688 -0.0078125 1.382812 0.03125 1.1875 0.03125 C 1 0.03125 0.820312 -0.0078125 0.65625 -0.09375 C 0.5 -0.1875 0.375 -0.3125 0.28125 -0.46875 C 0.195312 -0.625 0.15625 -0.804688 0.15625 -1.015625 C 0.15625 -1.222656 0.195312 -1.40625 0.28125 -1.5625 C 0.375 -1.71875 0.5 -1.835938 0.65625 -1.921875 C 0.820312 -2.015625 1 -2.0625 1.1875 -2.0625 C 1.382812 -2.0625 1.554688 -2.015625 1.703125 -1.921875 C 1.859375 -1.835938 1.984375 -1.71875 2.078125 -1.5625 C 2.171875 -1.40625 2.21875 -1.222656 2.21875 -1.015625 Z M 1.8125 -1.015625 C 1.8125 -1.148438 1.785156 -1.269531 1.734375 -1.375 C 1.679688 -1.476562 1.601562 -1.554688 1.5 -1.609375 C 1.40625 -1.671875 1.300781 -1.703125 1.1875 -1.703125 C 1.070312 -1.703125 0.960938 -1.671875 0.859375 -1.609375 C 0.765625 -1.554688 0.691406 -1.476562 0.640625 -1.375 C 0.585938 -1.269531 0.5625 -1.148438 0.5625 -1.015625 C 0.5625 -0.878906 0.585938 -0.757812 0.640625 -0.65625 C 0.691406 -0.550781 0.765625 -0.46875 0.859375 -0.40625 C 0.960938 -0.351562 1.070312 -0.328125 1.1875 -0.328125 C 1.300781 -0.328125 1.40625 -0.351562 1.5 -0.40625 C 1.601562 -0.46875 1.679688 -0.550781 1.734375 -0.65625 C 1.785156 -0.757812 1.8125 -0.878906 1.8125 -1.015625 Z M 1.8125 -1.015625 "/></g></g></g><g fill="#274082" fill-opacity="1"><g transform="translate(68.029362, 15.945986)"><g><path d="M 0.40625 -2.40625 C 0.320312 -2.40625 0.253906 -2.425781 0.203125 -2.46875 C 0.160156 -2.519531 0.140625 -2.582031 0.140625 -2.65625 C 0.140625 -2.726562 0.160156 -2.785156 0.203125 -2.828125 C 0.253906 -2.878906 0.320312 -2.90625 0.40625 -2.90625 C 0.5 -2.90625 0.566406 -2.882812 0.609375 -2.84375 C 0.648438 -2.800781 0.671875 -2.738281 0.671875 -2.65625 C 0.671875 -2.59375 0.648438 -2.535156 0.609375 -2.484375 C 0.566406 -2.429688 0.5 -2.40625 0.40625 -2.40625 Z M 0.671875 0 L 0.28125 0 L 0.28125 -2.03125 L 0.671875 -2.03125 Z M 0.671875 0 "/></g></g></g><g fill="#274082" fill-opacity="1"><g transform="translate(68.838769, 15.945986)"><g><path d="M 0.53125 -1.015625 C 0.53125 -0.878906 0.5625 -0.757812 0.625 -0.65625 C 0.6875 -0.550781 0.765625 -0.46875 0.859375 -0.40625 C 0.960938 -0.351562 1.070312 -0.328125 1.1875 -0.328125 C 1.3125 -0.328125 1.421875 -0.359375 1.515625 -0.421875 C 1.609375 -0.484375 1.6875 -0.550781 1.75 -0.625 L 1.96875 -0.359375 C 1.914062 -0.285156 1.847656 -0.21875 1.765625 -0.15625 C 1.679688 -0.101562 1.582031 -0.0546875 1.46875 -0.015625 C 1.363281 0.015625 1.253906 0.03125 1.140625 0.03125 C 0.953125 0.03125 0.78125 -0.0078125 0.625 -0.09375 C 0.476562 -0.1875 0.363281 -0.3125 0.28125 -0.46875 C 0.195312 -0.632812 0.15625 -0.816406 0.15625 -1.015625 C 0.15625 -1.210938 0.195312 -1.390625 0.28125 -1.546875 C 0.363281 -1.710938 0.476562 -1.835938 0.625 -1.921875 C 0.78125 -2.015625 0.953125 -2.0625 1.140625 -2.0625 C 1.328125 -2.0625 1.492188 -2.023438 1.640625 -1.953125 C 1.785156 -1.878906 1.894531 -1.78125 1.96875 -1.65625 L 1.75 -1.390625 C 1.6875 -1.472656 1.597656 -1.546875 1.484375 -1.609375 C 1.378906 -1.671875 1.273438 -1.703125 1.171875 -1.703125 C 1.054688 -1.703125 0.945312 -1.671875 0.84375 -1.609375 C 0.75 -1.554688 0.671875 -1.476562 0.609375 -1.375 C 0.554688 -1.269531 0.53125 -1.148438 0.53125 -1.015625 Z M 0.53125 -1.015625 "/></g></g></g><g fill="#274082" fill-opacity="1"><g transform="translate(70.639114, 15.945986)"><g><path d="M 2.015625 -0.265625 C 1.929688 -0.179688 1.816406 -0.109375 1.671875 -0.046875 C 1.523438 0.00390625 1.375 0.03125 1.21875 0.03125 C 1.007812 0.03125 0.820312 -0.0078125 0.65625 -0.09375 C 0.5 -0.1875 0.375 -0.304688 0.28125 -0.453125 C 0.195312 -0.609375 0.15625 -0.785156 0.15625 -0.984375 C 0.15625 -1.210938 0.203125 -1.40625 0.296875 -1.5625 C 0.390625 -1.726562 0.515625 -1.851562 0.671875 -1.9375 C 0.828125 -2.03125 1 -2.078125 1.1875 -2.078125 C 1.351562 -2.078125 1.503906 -2.035156 1.640625 -1.953125 C 1.785156 -1.867188 1.898438 -1.75 1.984375 -1.59375 C 2.066406 -1.445312 2.109375 -1.28125 2.109375 -1.09375 L 2.109375 -0.921875 L 0.546875 -0.921875 C 0.578125 -0.734375 0.65625 -0.585938 0.78125 -0.484375 C 0.90625 -0.378906 1.066406 -0.328125 1.265625 -0.328125 C 1.398438 -0.328125 1.507812 -0.351562 1.59375 -0.40625 C 1.6875 -0.457031 1.765625 -0.507812 1.828125 -0.5625 Z M 1.1875 -1.703125 C 1.039062 -1.703125 0.910156 -1.664062 0.796875 -1.59375 C 0.679688 -1.53125 0.601562 -1.410156 0.5625 -1.234375 L 1.703125 -1.234375 L 1.703125 -1.265625 C 1.691406 -1.347656 1.660156 -1.421875 1.609375 -1.484375 C 1.566406 -1.554688 1.503906 -1.609375 1.421875 -1.640625 C 1.347656 -1.679688 1.269531 -1.703125 1.1875 -1.703125 Z M 1.1875 -1.703125 "/></g></g></g></svg>